<svg xmlns="http://www.w3.org/2000/svg" width="814" height="226" viewBox="0 0 814 226" version="1.1"><path d="M 100.500 4.032 C 13.265 22.364, -19.943 124.187, 40.772 187.169 C 96.104 244.568, 195.633 228.944, 229.060 157.613 C 267.511 75.561, 191.609 -15.114, 100.500 4.032 M 163.500 39.924 C 138.947 47.655, 123.597 72.802, 130.950 93.250 C 132.523 97.624, 132.868 100.269, 132.394 104.303 C 131.726 109.992, 135.941 132.920, 138.627 138.200 C 139.382 139.686, 139.999 141.936, 139.997 143.200 C 139.992 146.622, 144.125 160.347, 145.509 161.504 C 146.169 162.056, 147.045 163.566, 147.455 164.859 C 150.927 175.798, 169.731 184.621, 178 179.191 C 180.475 177.566, 184.300 175.621, 186.500 174.868 C 191.179 173.268, 193.577 171.080, 201.433 161.250 C 206.126 155.377, 207.755 154, 210.008 154 C 216.377 154, 222.254 143.895, 219.867 137.048 C 218.589 133.382, 212.659 127, 210.532 127 C 205.728 127, 199.769 132.138, 197.859 137.928 C 196.777 141.204, 190.030 151.359, 186.262 155.380 C 183.351 158.486, 176.432 161.145, 173.290 160.366 C 169.787 159.498, 163.328 155.296, 162.606 153.417 C 162.307 152.638, 161.428 152, 160.653 152 C 158.024 152, 155.470 143.060, 151.943 121.513 C 151.083 116.260, 151.194 115.219, 152.850 113.013 C 154.948 110.219, 154.939 110.220, 174 111.630 C 204.760 113.907, 205.058 113.635, 205.581 82.733 C 206.237 44.044, 193.042 30.621, 163.500 39.924 M 167.929 50.793 C 162.671 54.170, 159 59.709, 159 64.266 C 159 65.999, 157.393 71.159, 155.429 75.731 C 147.153 95.001, 155.955 107.197, 172.889 99.923 C 174.325 99.306, 177.975 97.831, 181 96.645 C 187.509 94.094, 189.140 89.563, 189.148 74.003 C 189.160 52.235, 180.475 42.735, 167.929 50.793 M 94.707 57.090 C 86.662 63.722, 86.492 70.577, 94.135 80.160 C 97.770 84.719, 98.806 113.682, 95.589 120.809 C 94.085 124.138, 93.883 125.731, 94.642 128.271 C 98.092 139.827, 89.879 154.428, 78.468 157.024 C 62.640 160.624, 59.869 159.991, 51.283 150.811 C 46.176 145.352, 43.216 114.146, 47.012 105.784 C 48.081 103.428, 48.966 100.469, 48.978 99.210 C 48.990 97.950, 50.013 95.546, 51.250 93.868 C 56.486 86.768, 54.030 61.687, 47.693 57.534 C 33.505 48.238, 22.393 68.104, 32.330 85 C 36.125 91.454, 35.556 105.118, 31.017 116.500 C 29.168 121.138, 28.793 140.523, 30.428 147 C 31.191 150.025, 32.149 154.743, 32.557 157.484 C 33.708 165.235, 39.502 174.089, 44.426 175.623 C 45.567 175.979, 47.968 177.551, 49.763 179.116 C 57.914 186.225, 65.479 187.563, 77.143 183.960 C 84.543 181.674, 86.861 180.486, 98.645 172.940 C 108.359 166.720, 113.212 155.235, 112.978 139.020 C 112.769 124.468, 112.899 121.405, 113.916 116.879 C 114.368 114.867, 114.579 108.108, 114.384 101.860 C 112.953 55.897, 113.200 57.275, 105.986 55.114 C 100.390 53.437, 98.801 53.716, 94.707 57.090" stroke="none" fill="#ec9d5e" fill-rule="evenodd"/><path d="M 386.557 80.223 C 385.701 81.445, 384.998 84.257, 384.996 86.473 C 384.990 92.353, 382.465 106.974, 379.016 121.097 C 374.560 139.346, 376.008 145.404, 386.260 151.412 C 408.973 164.723, 440.766 120.060, 419.085 105.300 C 414.651 102.282, 408.403 101.489, 403.924 103.375 C 400.347 104.882, 400.347 104.882, 402.141 99.691 C 405.594 89.697, 404.508 85.547, 397.233 80.933 C 391.704 77.426, 388.657 77.224, 386.557 80.223 M 683.557 80.223 C 682.382 81.899, 682 85.084, 682 93.192 C 682 103.940, 682 103.940, 678.360 101.470 C 661.133 89.779, 633.494 126.545, 645.770 144.823 C 654.503 157.827, 664.046 156.511, 674.049 140.923 C 678.320 134.268, 680.442 133.907, 677.365 140.361 C 671.294 153.091, 692.864 158.922, 704.750 147.764 C 711.997 140.960, 702.916 130.561, 694.428 135.943 C 687.813 140.139, 688.343 134.188, 696.963 107.500 C 702.586 90.092, 702.708 88.995, 699.453 85.127 C 694.080 78.742, 686.280 76.335, 683.557 80.223 M 309.017 87.250 C 304.611 89.500, 304.611 89.500, 304.556 103 C 304.492 118.413, 302.381 126.722, 296.607 134.293 C 286.243 147.881, 283.052 136.040, 290.032 109.898 C 294.578 92.872, 294.506 93.778, 291.557 90.830 C 287.738 87.010, 279.637 86.189, 277.168 89.371 C 271.755 96.347, 267.404 138.219, 271.530 143.628 C 290.819 168.918, 320.967 146.999, 322.773 106.372 C 323.446 91.245, 322.796 88.231, 318.473 86.424 C 314.112 84.602, 314.222 84.593, 309.017 87.250 M 613.382 86.747 C 599.691 87.022, 598.091 87.242, 596.432 89.075 C 592.679 93.222, 595.294 102, 600.283 102 C 602.673 102, 602.576 102.847, 597.419 126.978 C 592.456 150.204, 594.564 154.006, 612.400 153.994 C 633.964 153.980, 640.649 149.957, 635.537 140.072 C 633.452 136.039, 631.960 135.800, 622.724 138.014 C 610.594 140.922, 610.633 140.932, 611.485 135.250 C 612.666 127.373, 612.843 127.244, 622.947 126.850 C 633.522 126.438, 635.455 125.225, 635.455 119 C 635.455 112.407, 633.664 111.453, 623.884 112.836 C 619.364 113.475, 615.599 113.886, 615.518 113.749 C 612.130 107.999, 619.030 101.216, 628.707 100.786 C 640.552 100.259, 642 99.438, 642 93.243 C 642 87.168, 640.673 85.971, 634.215 86.222 C 631.072 86.344, 621.697 86.580, 613.382 86.747 M 331.663 102.539 C 326.040 108, 325.883 110.475, 330.858 115.209 C 335.483 119.610, 335.453 118.794, 331.471 132 C 327.718 144.443, 327.715 144.508, 330.619 147.959 C 340.125 159.256, 346.585 155.416, 347.727 137.790 C 348.351 128.149, 349.995 126.612, 366.192 120.534 C 375.432 117.066, 374.724 101.057, 365.327 100.986 C 364.322 100.979, 362.517 100.709, 361.315 100.387 C 359.439 99.884, 358.694 100.663, 356.052 105.897 C 349.976 117.933, 348.757 119.320, 349.512 113.339 C 350.956 101.895, 339.478 94.949, 331.663 102.539 M 449.230 101.115 C 434.290 108.510, 425.455 135.045, 434.003 146.846 C 442.549 158.642, 453.985 154.931, 463.948 137.129 C 464.444 136.242, 465.198 135.864, 465.622 136.289 C 466.047 136.714, 465.631 138.355, 464.697 139.935 C 461.716 144.982, 463.712 149.296, 470.684 152.878 C 476.280 155.753, 488.982 151.833, 493.278 145.906 C 498.101 139.251, 489.015 130.976, 481.989 135.626 C 476.484 139.269, 476.445 138.892, 481 126.122 C 486.022 112.044, 486.059 110.137, 481.389 106.037 C 475.316 100.704, 471.503 99.803, 469.900 103.321 C 468.842 105.642, 468.842 105.642, 465.521 102.321 C 461.460 98.260, 455.839 97.844, 449.230 101.115 M 504.624 102.026 C 498.687 107.238, 498.276 110.497, 503.020 114.755 C 507.805 119.051, 507.800 118.963, 503.868 128.724 C 497.154 145.390, 497.401 148.053, 506.069 152.536 C 513.056 156.149, 515.464 153.428, 517.541 139.575 C 518.510 133.114, 533 117.463, 533 122.877 C 533 123.359, 531.650 128.140, 530 133.500 C 525.988 146.534, 526.506 148.676, 534.684 152.878 C 540.776 156.008, 556.432 150.612, 558.467 144.682 C 560.849 137.739, 552.247 131.184, 546.503 135.565 C 541.648 139.269, 541.648 139.204, 546.551 124.587 C 551.519 109.779, 551.336 108.236, 544.039 103.407 C 538.483 99.730, 534.316 102.294, 523.928 115.781 C 521.401 119.061, 521.401 119.061, 521.806 112.699 C 522.510 101.656, 512.281 95.302, 504.624 102.026 M 728.457 100.863 C 715.802 108.580, 706.611 136.931, 714.026 145.376 C 720.002 152.183, 726.387 151.618, 738.750 143.188 C 742.717 140.482, 745 139.434, 745 140.318 C 745 141.084, 742.243 143.644, 738.873 146.008 C 709.706 166.467, 705.612 175.446, 720.696 185.871 C 735.582 196.159, 746.452 186.808, 752.514 158.500 C 762.638 111.215, 762.591 108.463, 751.556 102.789 C 747.612 100.761, 747.612 100.761, 745.940 102.826 C 744.269 104.890, 744.269 104.890, 741.447 101.945 C 738.075 98.425, 733.130 98.014, 728.457 100.863 M 780.993 101.752 C 762.963 113.337, 759.529 139.700, 774.692 150.132 C 789.453 160.288, 817.069 147.679, 806.249 135.723 C 802.840 131.955, 801.392 131.822, 796.304 134.805 C 785.487 141.147, 781 141.897, 781 137.363 C 781 135.467, 781.558 133.789, 782.250 133.605 C 797.056 129.664, 804.367 125.726, 808.029 119.720 C 815.906 106.801, 794.882 92.829, 780.993 101.752 M 455.014 115.864 C 451.449 119.612, 448.050 128.058, 446.578 136.826 C 445.506 143.212, 460.277 129.006, 464.657 119.438 C 468.652 110.713, 462.192 108.319, 455.014 115.864 M 668.036 115.750 C 662.902 120.913, 656.582 140.370, 660.770 138.119 C 667.239 134.644, 680.881 116.738, 679.601 113.403 C 678.457 110.422, 672.039 111.725, 668.036 115.750 M 736.199 112.679 C 733.040 113.945, 727.827 125.283, 726.056 134.740 C 725.262 138.981, 725.262 138.981, 729.256 136.740 C 744.316 128.292, 750.472 106.959, 736.199 112.679 M 396.481 116.388 C 394.270 119.762, 391.666 133.405, 392.442 137.544 C 394.176 146.785, 406.400 135.112, 409.429 121.325 C 410.788 115.135, 399.998 111.021, 396.481 116.388" stroke="none" fill="#232b13" fill-rule="evenodd"/></svg>