<svg width="430" height="430" viewBox="0 0 430 430" fill="none" xmlns="http://www.w3.org/2000/svg">
<path d="M274.2 144.5V173.84C274.209 184.042 271.573 194.073 266.548 202.952C261.523 211.831 254.281 219.255 245.53 224.5V243.19C245.53 260.02 231.88 273.19 215.05 273.19H212.65C206.473 273.247 200.426 271.414 195.32 267.938C190.214 264.462 186.292 259.508 184.08 253.74C182.816 250.37 182.172 246.799 182.18 243.2V223.64C181.18 222.99 180.18 222.31 179.18 221.64C178.18 220.93 177.25 220.18 176.31 219.42C175.37 218.66 174.46 217.84 173.57 217.01C173.13 216.59 172.69 216.17 172.26 215.74C166.615 210.143 162.159 203.462 159.16 196.1C158.87 195.38 158.59 194.65 158.33 193.92C158.07 193.19 157.72 192.16 157.45 191.27C155.713 185.644 154.833 179.788 154.84 173.9V144.92C158.1 144.18 161.233 143.386 164.24 142.54L164.47 142.48C166.4 141.94 168.27 141.38 170.1 140.79C171.1 140.5 171.99 140.19 172.92 139.87C174.77 139.26 176.57 138.61 178.32 137.95C228.74 118.95 237.64 85.9498 237.64 85.9498C270.13 102.89 273.9 132.08 274.24 141.49C274.27 143.4 274.2 144.5 274.2 144.5Z" fill="#F9C9C0"/>
<path d="M332.4 318.98V349.34C332.4 353.255 330.845 357.009 328.077 359.777C325.309 362.545 321.555 364.1 317.64 364.1H296.71C278.28 365.55 268.44 369.59 260.95 373.27C253.46 376.95 248.3 380.27 239.23 380.27H188.76C170.64 380.27 168.24 366.95 131.16 364.07H112.44C108.525 364.07 104.771 362.515 102.003 359.747C99.2351 356.979 97.6801 353.225 97.6801 349.31V318.98C97.6787 309.02 99.6395 299.158 103.45 289.956C107.261 280.754 112.847 272.393 119.89 265.35C126.933 258.307 135.294 252.721 144.496 248.91C153.698 245.099 163.56 243.139 173.52 243.14H182.17C182.17 259.97 195.81 273.14 212.64 273.14H215C231.83 273.14 245.48 259.97 245.48 243.14H256.48C266.447 243.128 276.318 245.081 285.529 248.887C294.74 252.693 303.111 258.278 310.162 265.322C317.213 272.365 322.806 280.73 326.622 289.937C330.438 299.144 332.401 309.013 332.4 318.98Z" fill="#153012"/>
<path d="M274.2 144.5V141.5C273.86 132.09 270.09 102.9 237.6 85.9599C237.6 85.9599 226.06 128.8 154.8 144.96C153.57 145.23 152.31 145.51 151.04 145.77C151.04 145.77 125.58 70.7699 157.18 52.2699C159.223 51.2253 161.492 50.7016 163.786 50.7452C166.08 50.7888 168.328 51.3984 170.33 52.5199C175.21 55.6399 180.1 60.7299 183.18 63.3599C185.513 65.3603 188.52 66.3972 191.59 66.2599C195.82 66.0499 201.33 64.0599 207.47 61.7399C257.74 42.7399 280.39 77.3199 280.92 91.9799C281.84 117.5 283.82 138.73 274.2 144.5Z" fill="#B26836"/>
<g style="mix-blend-mode:multiply" opacity="0.5">
<path d="M184.07 253.69C182.806 250.32 182.162 246.749 182.17 243.15C174.87 243.15 166.44 242.98 159.3 244.47C143.985 247.376 129.945 254.953 119.11 266.16C117.73 267.57 116.44 269.04 115.17 270.55L114.58 271.27C107.18 280.403 102.007 291.132 99.47 302.61C96.64 313.28 98.01 338.11 97.71 349.31C97.7074 351.248 98.0874 353.169 98.8284 354.96C99.5693 356.751 100.657 358.379 102.028 359.749C103.399 361.119 105.027 362.206 106.819 362.945C108.611 363.685 110.531 364.064 112.47 364.06C114.22 364.14 132.71 363.86 133.94 364.31C130.21 334.97 127.94 294.59 146.15 271.87C152.24 262.65 168.15 255 181.99 253.75C182 253.78 182.74 253.76 184.07 253.69Z" fill="#162616"/>
</g>
<g style="mix-blend-mode:multiply" opacity="0.5">
<path d="M183.89 224.7L183.65 224.55L183.9 224.7H183.89Z" fill="#F9C9C0"/>
</g>
<g style="mix-blend-mode:multiply" opacity="0.5">
<path d="M245.52 224.5L243.85 225.5C243.28 225.81 242.71 226.12 242.13 226.42C241.55 226.72 240.98 227.01 240.39 227.28C238.63 228.11 236.82 228.85 234.97 229.52C234.35 229.74 233.73 229.95 233.1 230.14C232.47 230.33 232.01 230.48 231.46 230.64L231.12 230.73L229.29 231.21C228.64 231.37 227.99 231.52 227.34 231.65L226.21 231.87C218.9 230.483 211.92 227.721 205.64 223.73C197.252 218.41 190.345 211.056 185.561 202.351C180.778 193.646 178.273 183.873 178.28 173.94V138.04C170.624 140.91 162.778 143.249 154.8 145.04V173.97C154.793 183.903 157.298 193.676 162.081 202.381C166.865 211.086 173.772 218.44 182.16 223.76V243.26C182.152 246.859 182.796 250.43 184.06 253.8C193.594 253.227 203.057 251.788 212.33 249.5C224.43 246.5 239.07 240.64 245.52 229.83V224.5Z" fill="#F9C9C0"/>
</g>
<path d="M246.48 324.13C246.48 314.37 247.48 306.46 248.71 306.46H249C249.52 306.46 251.29 307.75 254.78 311.36C261.04 305.24 267.3 305.24 273.56 311.36C277.06 307.75 278.82 306.47 279.35 306.46H279.58C280.82 306.46 281.81 314.37 281.81 324.13V325.22C281.81 329.357 280.166 333.325 277.241 336.251C274.315 339.176 270.347 340.82 266.21 340.82H262.13C257.993 340.817 254.027 339.173 251.102 336.248C248.177 333.323 246.533 329.356 246.53 325.22V323.06" fill="#EBE6EF"/>
<path d="M246.48 324.13C246.48 314.37 247.48 306.46 248.71 306.46H249C249.52 306.46 251.29 307.75 254.78 311.36C261.04 305.24 267.3 305.24 273.56 311.36C277.06 307.75 278.82 306.47 279.35 306.46H279.58C280.82 306.46 281.81 314.37 281.81 324.13V325.22C281.81 329.357 280.166 333.325 277.241 336.251C274.315 339.176 270.347 340.82 266.21 340.82H262.13C257.993 340.817 254.027 339.173 251.102 336.248C248.177 333.323 246.533 329.356 246.53 325.22V323.06" stroke="#EBE6EF" stroke-width="7" stroke-linecap="round" stroke-linejoin="round"/>
</svg>
