<svg xmlns="http://www.w3.org/2000/svg" xmlns:xlink="http://www.w3.org/1999/xlink" width="1080" zoomAndPan="magnify" viewBox="0 0 810 809.999993" height="1080" preserveAspectRatio="xMidYMid meet" version="1.0"><defs><clipPath id="f6d06133b9"><path d="M 251 520 L 567 520 L 567 521.386719 L 251 521.386719 Z M 251 520 " clip-rule="nonzero"/></clipPath><clipPath id="e649cd6a15"><path d="M 243 288.886719 L 327 288.886719 L 327 303 L 243 303 Z M 243 288.886719 " clip-rule="nonzero"/></clipPath></defs><g clip-path="url(#f6d06133b9)"><path fill="#3f3d58" d="M 251.792969 520.59375 C 251.792969 520.875 252.019531 521.105469 252.304688 521.105469 L 566.261719 521.105469 C 566.546875 521.105469 566.773438 520.875 566.773438 520.59375 C 566.773438 520.308594 566.546875 520.078125 566.261719 520.078125 L 252.304688 520.078125 C 252.019531 520.078125 251.792969 520.308594 251.792969 520.59375 Z M 251.792969 520.59375 " fill-opacity="1" fill-rule="nonzero"/></g><path fill="#d9d9d9" d="M 352.328125 329.847656 L 251.632812 329.847656 C 247.792969 329.847656 244.667969 326.722656 244.667969 322.882812 C 244.667969 319.042969 247.792969 315.917969 251.632812 315.917969 L 352.328125 315.917969 C 356.167969 315.917969 359.292969 319.042969 359.292969 322.882812 C 359.292969 326.722656 356.167969 329.847656 352.328125 329.847656 Z M 251.632812 316.777344 C 248.265625 316.777344 245.527344 319.515625 245.527344 322.882812 C 245.527344 326.25 248.265625 328.988281 251.632812 328.988281 L 352.328125 328.988281 C 355.691406 328.988281 358.429688 326.25 358.429688 322.882812 C 358.429688 319.515625 355.691406 316.777344 352.328125 316.777344 Z M 251.632812 316.777344 " fill-opacity="1" fill-rule="nonzero"/><path fill="#a9714b" d="M 352.328125 411.363281 L 251.632812 411.363281 C 247.910156 411.363281 244.882812 408.335938 244.882812 404.613281 C 244.882812 400.886719 247.910156 397.863281 251.632812 397.863281 L 352.328125 397.863281 C 356.050781 397.863281 359.078125 400.886719 359.078125 404.613281 C 359.078125 408.335938 356.050781 411.363281 352.328125 411.363281 Z M 352.328125 411.363281 " fill-opacity="1" fill-rule="nonzero"/><g clip-path="url(#e649cd6a15)"><path fill="#d9d9d9" d="M 319.328125 302.386719 L 249.976562 302.386719 C 246.253906 302.386719 243.226562 299.359375 243.226562 295.636719 C 243.226562 291.910156 246.253906 288.886719 249.976562 288.886719 L 319.328125 288.886719 C 323.050781 288.886719 326.078125 291.910156 326.078125 295.636719 C 326.078125 299.359375 323.050781 302.386719 319.328125 302.386719 Z M 319.328125 302.386719 " fill-opacity="1" fill-rule="nonzero"/></g><path fill="#d9d9d9" d="M 352.328125 357.089844 L 251.632812 357.089844 C 247.792969 357.089844 244.667969 353.964844 244.667969 350.125 C 244.667969 346.285156 247.792969 343.160156 251.632812 343.160156 L 352.328125 343.160156 C 356.167969 343.160156 359.292969 346.285156 359.292969 350.125 C 359.292969 353.964844 356.167969 357.089844 352.328125 357.089844 Z M 251.632812 344.019531 C 248.265625 344.019531 245.527344 346.757812 245.527344 350.125 C 245.527344 353.492188 248.265625 356.226562 251.632812 356.226562 L 352.328125 356.226562 C 355.691406 356.226562 358.429688 353.492188 358.429688 350.125 C 358.429688 346.757812 355.691406 344.019531 352.328125 344.019531 Z M 251.632812 344.019531 " fill-opacity="1" fill-rule="nonzero"/><path fill="#d9d9d9" d="M 352.328125 384.335938 L 251.632812 384.335938 C 247.792969 384.335938 244.667969 381.210938 244.667969 377.371094 C 244.667969 373.53125 247.792969 370.40625 251.632812 370.40625 L 352.328125 370.40625 C 356.167969 370.40625 359.292969 373.53125 359.292969 377.371094 C 359.292969 381.210938 356.167969 384.335938 352.328125 384.335938 Z M 251.632812 371.265625 C 248.265625 371.265625 245.527344 374.003906 245.527344 377.371094 C 245.527344 380.738281 248.265625 383.472656 251.632812 383.472656 L 352.328125 383.472656 C 355.691406 383.472656 358.429688 380.738281 358.429688 377.371094 C 358.429688 374.003906 355.691406 371.265625 352.328125 371.265625 Z M 251.632812 371.265625 " fill-opacity="1" fill-rule="nonzero"/><path fill="#d9d9d9" d="M 248.171875 310.914062 L 274.5625 310.914062 C 275.191406 310.914062 275.703125 311.421875 275.703125 312.054688 C 275.703125 312.683594 275.191406 313.195312 274.5625 313.195312 L 248.171875 313.195312 C 247.542969 313.195312 247.03125 312.6875 247.03125 312.054688 C 247.03125 311.425781 247.542969 310.914062 248.171875 310.914062 Z M 248.171875 310.914062 " fill-opacity="1" fill-rule="nonzero"/><path fill="#d9d9d9" d="M 248.171875 338.800781 L 274.5625 338.800781 C 275.191406 338.800781 275.703125 339.308594 275.703125 339.9375 C 275.703125 340.566406 275.191406 341.078125 274.5625 341.078125 L 248.171875 341.078125 C 247.542969 341.078125 247.03125 340.570312 247.03125 339.941406 C 247.03125 339.3125 247.542969 338.800781 248.171875 338.800781 Z M 248.171875 338.800781 " fill-opacity="1" fill-rule="nonzero"/><path fill="#d9d9d9" d="M 248.171875 366.695312 L 274.5625 366.695312 C 275.191406 366.695312 275.703125 367.203125 275.703125 367.835938 C 275.703125 368.464844 275.191406 368.972656 274.5625 368.972656 L 248.171875 368.972656 C 247.542969 368.972656 247.03125 368.464844 247.03125 367.832031 C 247.03125 367.203125 247.542969 366.695312 248.171875 366.695312 Z M 248.171875 366.695312 " fill-opacity="1" fill-rule="nonzero"/><path fill="#9f616a" d="M 435.691406 345.824219 L 426.066406 348.992188 L 426.066406 335.132812 L 434.800781 335.132812 Z M 435.691406 345.824219 " fill-opacity="1" fill-rule="nonzero"/><path fill="#9f616a" d="M 436.851562 329.378906 C 436.851562 330.007812 436.789062 330.632812 436.664062 331.25 C 436.542969 331.867188 436.359375 332.46875 436.121094 333.046875 C 435.878906 333.628906 435.582031 334.183594 435.234375 334.707031 C 434.882812 335.230469 434.488281 335.714844 434.042969 336.160156 C 433.59375 336.605469 433.109375 337.003906 432.585938 337.351562 C 432.0625 337.703125 431.511719 338 430.929688 338.238281 C 430.347656 338.480469 429.746094 338.664062 429.128906 338.785156 C 428.511719 338.910156 427.886719 338.96875 427.257812 338.96875 C 426.628906 338.96875 426.003906 338.910156 425.386719 338.785156 C 424.769531 338.664062 424.171875 338.480469 423.589844 338.238281 C 423.007812 338 422.453125 337.703125 421.929688 337.351562 C 421.40625 337.003906 420.921875 336.605469 420.476562 336.160156 C 420.03125 335.714844 419.632812 335.230469 419.285156 334.707031 C 418.933594 334.183594 418.636719 333.628906 418.398438 333.046875 C 418.15625 332.46875 417.972656 331.867188 417.851562 331.25 C 417.730469 330.632812 417.667969 330.007812 417.667969 329.378906 C 417.667969 328.75 417.730469 328.125 417.851562 327.507812 C 417.972656 326.890625 418.15625 326.289062 418.398438 325.707031 C 418.636719 325.125 418.933594 324.574219 419.285156 324.050781 C 419.632812 323.527344 420.03125 323.042969 420.476562 322.597656 C 420.921875 322.152344 421.40625 321.753906 421.929688 321.402344 C 422.453125 321.054688 423.007812 320.757812 423.589844 320.515625 C 424.171875 320.277344 424.769531 320.09375 425.386719 319.972656 C 426.003906 319.847656 426.628906 319.785156 427.257812 319.785156 C 427.886719 319.785156 428.511719 319.847656 429.128906 319.972656 C 429.746094 320.09375 430.347656 320.277344 430.929688 320.515625 C 431.511719 320.757812 432.0625 321.054688 432.585938 321.402344 C 433.109375 321.753906 433.59375 322.152344 434.042969 322.597656 C 434.488281 323.042969 434.882812 323.527344 435.234375 324.050781 C 435.582031 324.574219 435.878906 325.125 436.121094 325.707031 C 436.359375 326.289062 436.542969 326.890625 436.667969 327.507812 C 436.789062 328.125 436.851562 328.75 436.851562 329.378906 Z M 436.851562 329.378906 " fill-opacity="1" fill-rule="nonzero"/><path fill="#262a10" d="M 429.894531 328.425781 C 428.289062 328.378906 427.234375 326.757812 426.609375 325.277344 C 425.984375 323.792969 425.34375 322.09375 423.855469 321.484375 C 422.636719 320.984375 420.488281 324.363281 419.527344 323.464844 C 418.523438 322.523438 419.5 317.707031 420.566406 316.84375 C 421.628906 315.976562 423.082031 315.808594 424.453125 315.746094 C 427.792969 315.589844 431.15625 315.859375 434.429688 316.546875 C 436.457031 316.96875 438.542969 317.605469 440.007812 319.066406 C 441.855469 320.925781 442.332031 323.730469 442.464844 326.351562 C 442.601562 329.035156 442.445312 331.839844 441.140625 334.1875 C 439.839844 336.53125 437.109375 338.261719 434.492188 337.664062 C 434.230469 336.246094 434.496094 334.785156 434.597656 333.339844 C 434.699219 331.898438 434.59375 330.339844 433.710938 329.1875 C 432.832031 328.039062 430.949219 327.582031 429.921875 328.601562 " fill-opacity="1" fill-rule="nonzero"/><path fill="#262a10" d="M 441.695312 331.75 C 442.652344 331.046875 443.804688 330.457031 444.980469 330.605469 C 446.257812 330.761719 447.335938 331.808594 447.664062 333.054688 C 447.992188 334.296875 447.625 335.667969 446.832031 336.683594 C 446.046875 337.699219 444.871094 338.371094 443.628906 338.707031 C 442.910156 338.902344 442.125 338.984375 441.4375 338.691406 C 440.433594 338.253906 439.886719 336.96875 440.28125 335.941406 " fill-opacity="1" fill-rule="nonzero"/><path fill="#9f616a" d="M 404.988281 421.996094 C 404.347656 425.148438 405.523438 428.027344 407.605469 428.425781 C 409.691406 428.828125 411.898438 426.59375 412.535156 423.441406 C 412.808594 422.183594 412.765625 420.882812 412.410156 419.644531 L 420.34375 370.246094 L 410.421875 368.378906 L 406.589844 418.53125 C 405.777344 419.546875 405.230469 420.734375 404.988281 422 Z M 404.988281 421.996094 " fill-opacity="1" fill-rule="nonzero"/><path fill="#d9d9d9" d="M 425.964844 342.632812 L 419.191406 342.632812 C 414.402344 343.359375 413.105469 345.914062 412.015625 350.632812 C 410.351562 357.828125 408.230469 367.414062 408.652344 367.554688 C 409.328125 367.777344 420.855469 373.203125 426.734375 371.964844 Z M 425.964844 342.632812 " fill-opacity="1" fill-rule="nonzero"/><path fill="#9f616a" d="M 423.496094 499.984375 L 432.511719 499.984375 L 432.511719 512.773438 L 423.496094 512.773438 Z M 423.496094 499.984375 " fill-opacity="1" fill-rule="nonzero"/><path fill="#262a10" d="M 414.71875 520.515625 C 413.769531 520.515625 412.925781 520.492188 412.289062 520.433594 C 409.898438 520.214844 407.609375 518.445312 406.460938 517.410156 C 405.945312 516.945312 405.78125 516.207031 406.046875 515.566406 C 406.242188 515.113281 406.625 514.765625 407.101562 514.632812 L 413.429688 512.824219 L 423.675781 505.914062 L 423.792969 506.117188 C 423.835938 506.195312 424.84375 508.007812 425.179688 509.230469 C 425.308594 509.695312 425.273438 510.082031 425.082031 510.386719 C 424.945312 510.589844 424.757812 510.710938 424.605469 510.78125 C 424.792969 510.976562 425.375 511.371094 427.164062 511.65625 C 429.777344 512.066406 430.328125 509.359375 430.351562 509.25 L 430.367188 509.15625 L 430.445312 509.105469 C 431.6875 508.304688 432.453125 507.941406 432.71875 508.015625 C 432.882812 508.066406 433.15625 508.152344 433.902344 515.523438 C 433.972656 515.757812 434.496094 517.453125 434.140625 519.078125 C 433.757812 520.839844 426.042969 520.234375 424.5 520.097656 C 424.457031 520.101562 418.679688 520.515625 414.722656 520.515625 Z M 414.71875 520.515625 " fill-opacity="1" fill-rule="nonzero"/><path fill="#9f616a" d="M 450.53125 494.707031 L 458.179688 489.933594 L 464.949219 500.789062 L 457.300781 505.558594 Z M 450.53125 494.707031 " fill-opacity="1" fill-rule="nonzero"/><path fill="#262a10" d="M 448.023438 518.761719 C 446.960938 518.761719 445.988281 518.632812 445.296875 518.511719 C 444.617188 518.390625 444.082031 517.851562 443.972656 517.167969 C 443.894531 516.679688 444.035156 516.183594 444.371094 515.816406 L 448.785156 510.9375 L 453.820312 499.648438 L 454.027344 499.761719 C 454.105469 499.804688 455.917969 500.804688 456.851562 501.667969 C 457.207031 501.996094 457.386719 502.34375 457.375 502.699219 C 457.371094 502.949219 457.277344 503.148438 457.183594 503.289062 C 457.441406 503.359375 458.144531 503.386719 459.8125 502.679688 C 462.25 501.648438 461.285156 499.058594 461.242188 498.949219 L 461.207031 498.863281 L 461.246094 498.78125 C 461.878906 497.445312 462.332031 496.730469 462.597656 496.65625 C 462.765625 496.609375 463.042969 496.535156 467.574219 502.402344 C 467.761719 502.558594 469.097656 503.726562 469.660156 505.289062 C 470.265625 506.988281 463.398438 510.558594 462.015625 511.253906 C 461.972656 511.289062 454.789062 516.511719 451.835938 517.996094 C 450.664062 518.585938 449.277344 518.765625 448.015625 518.765625 Z M 448.023438 518.761719 " fill-opacity="1" fill-rule="nonzero"/><path fill="#262a10" d="M 439.148438 393.027344 L 413.910156 393.027344 L 411.617188 416.507812 L 421.640625 503.261719 L 434.527344 503.261719 L 429.371094 453.15625 L 450.273438 498.390625 L 461.722656 490.375 L 445.402344 448.144531 C 445.402344 448.144531 451.234375 411.351562 446.652344 402.1875 C 442.070312 393.027344 439.148438 393.027344 439.148438 393.027344 Z M 439.148438 393.027344 " fill-opacity="1" fill-rule="nonzero"/><path fill="#d9d9d9" d="M 451.707031 394.457031 L 411.617188 394.457031 L 423.648438 342.632812 L 441.113281 342.632812 Z M 451.707031 394.457031 " fill-opacity="1" fill-rule="nonzero"/><path fill="#9f616a" d="M 455.3125 421.996094 C 455.957031 425.148438 454.78125 428.027344 452.695312 428.425781 C 450.613281 428.828125 448.40625 426.59375 447.769531 423.441406 C 447.496094 422.183594 447.539062 420.882812 447.894531 419.644531 L 439.957031 370.246094 L 449.882812 368.378906 L 453.714844 418.53125 C 454.527344 419.546875 455.074219 420.734375 455.3125 422 Z M 455.3125 421.996094 " fill-opacity="1" fill-rule="nonzero"/><path fill="#d9d9d9" d="M 434.339844 342.632812 L 441.113281 342.632812 C 445.898438 343.359375 447.199219 345.914062 448.289062 350.632812 C 449.949219 357.828125 452.074219 367.414062 451.652344 367.554688 C 450.976562 367.777344 439.445312 373.203125 433.570312 371.964844 Z M 434.339844 342.632812 " fill-opacity="1" fill-rule="nonzero"/></svg>